<?xml version="1.0" encoding="UTF-8"?>
<svg version="1.1" xmlns="http://www.w3.org/2000/svg" width="2000" height="2000">
<path d="M0 0 C1.66210966 -0.0070188 3.32421903 -0.01410565 4.98632812 -0.02125549 C10.27213931 -0.0406734 15.55790675 -0.04568957 20.84375 -0.046875 C22.19314163 -0.04753778 22.19314163 -0.04753778 23.5697937 -0.04821396 C49.16806822 -0.05481292 74.65133396 0.00053226 100.11322021 2.94665527 C102.49071521 3.22002329 104.86941912 3.48039418 107.24853516 3.73925781 C184.62311287 12.23715118 260.64052925 31.04499685 377.34375 82.203125 C378.41077148 82.72374512 379.47779297 83.24436523 380.57714844 83.78076172 C414.00938399 100.09993992 445.63693046 119.21881117 476.34375 140.203125 C477.50825684 140.99879883 477.50825684 140.99879883 478.69628906 141.81054688 C495.94526291 153.65910506 512.49363446 166.48845033 528.63476562 179.79833984 C530.22363323 181.10438901 531.82237053 182.39840581 533.421875 183.69140625 C538.76176568 188.00955807 543.93319119 192.46327777 549.01171875 197.0859375 C551.10198889 198.98363669 553.21361115 200.85045915 555.34375 202.703125 C561.96238654 208.47938961 568.50760388 214.28474577 574.6640625 220.5546875 C576.33126686 222.1908741 578.06026702 223.69520162 579.84375 225.203125 C588.75676234 232.89517675 597.21402253 241.45615871 604.80859375 250.44921875 C606.56986488 252.46145982 608.43854839 254.32684486 610.34375 256.203125 C614.2237227 260.03867053 617.80232014 264.05556579 621.34375 268.203125 C622.24969952 269.25676885 623.15597583 270.31013177 624.0625 271.36328125 C626.64976121 274.37164562 629.22947655 277.38637512 631.80615234 280.40380859 C632.79754386 281.5639476 633.78997904 282.72319595 634.78369141 283.88134766 C641.873817 292.1452857 648.68859949 300.58568826 655.34375 309.203125 C655.94880371 309.98220215 656.55385742 310.7612793 657.17724609 311.56396484 C666.12121552 323.09328302 674.70945203 334.78199879 682.81445312 346.91650391 C684.32031363 349.16808269 685.8384102 351.41094796 687.359375 353.65234375 C699.11078971 371.03484453 710.03699989 388.92937553 720.34375 407.203125 C720.78976562 407.99074219 721.23578125 408.77835938 721.6953125 409.58984375 C760.978527 479.28949004 789.11015345 554.7823181 822.546875 777.859375 C822.5538938 779.52148466 822.56098065 781.18359403 822.56813049 782.84570312 C822.5875484 788.13151431 822.59256457 793.41728175 822.59375 798.703125 C822.59419186 799.60271942 822.59463371 800.50231384 822.59508896 801.4291687 C822.60168792 827.02744322 822.54634274 852.51070896 819.60021973 877.97259521 C819.32685171 880.35009021 819.06648082 882.72879412 818.80761719 885.10791016 C809.68751852 968.1477592 788.48578459 1049.13654281 672.34375 1268.203125 C671.79219238 1268.96866699 671.24063477 1269.73420898 670.67236328 1270.52294922 C663.00535179 1281.13132478 655.0573032 1291.43771168 646.72021484 1301.52685547 C644.87763938 1303.77075812 643.07913319 1306.04833498 641.28125 1308.328125 C633.74092533 1317.7733738 625.75340586 1326.84489939 617.58203125 1335.74609375 C615.59057664 1337.93217569 613.64702487 1340.14895106 611.71875 1342.390625 C608.72815818 1345.83752778 605.53527945 1349.02968329 602.28515625 1352.23046875 C600.52585761 1354.01808608 598.89865464 1355.85038626 597.28125 1357.765625 C589.61936295 1366.66330028 581.06636251 1375.09396411 572.09765625 1382.66796875 C570.08541518 1384.42923988 568.22003014 1386.29792339 566.34375 1388.203125 C562.50820447 1392.0830977 558.49130921 1395.66169514 554.34375 1399.203125 C553.29010615 1400.10907452 552.23674323 1401.01535083 551.18359375 1401.921875 C548.17522938 1404.50913621 545.16049988 1407.08885155 542.14306641 1409.66552734 C540.9829274 1410.65691886 539.82367905 1411.64935404 538.66552734 1412.64306641 C472.51769556 1469.39523867 395.18195429 1515.12737152 217.34375 1577.203125 C216.68413269 1577.37050171 216.02451538 1577.53787842 215.34490967 1577.71032715 C159.74037065 1591.78622204 101.47475759 1600.25066603 44.0625 1600.40625 C42.44951348 1600.41327267 40.83652724 1600.42035948 39.22354126 1600.42750549 C34.0969401 1600.44690471 28.97038417 1600.45193968 23.84375 1600.453125 C22.97015587 1600.45356686 22.09656174 1600.45400871 21.19649506 1600.45446396 C-5.20222148 1600.46146663 -31.39467216 1600.14550848 -57.65625 1597.203125 C-59.30986416 1597.02412127 -60.96351103 1596.84541939 -62.6171875 1596.66699219 C-140.4925606 1588.15598687 -217.17940914 1569.06113962 -445.65625 1450.203125 C-446.42179199 1449.65156738 -447.18733398 1449.10000977 -447.97607422 1448.53173828 C-458.58444978 1440.86472679 -468.89083668 1432.9166782 -478.97998047 1424.57958984 C-481.22388312 1422.73701438 -483.50145998 1420.93850819 -485.78125 1419.140625 C-495.51648309 1411.36550595 -504.84068965 1403.1221159 -513.98046875 1394.66015625 C-516.23582151 1392.58918269 -518.52029866 1390.57161876 -520.84375 1388.578125 C-524.56459863 1385.35801169 -527.99094383 1381.88433979 -531.4453125 1378.3828125 C-533.41517811 1376.44078952 -535.42778633 1374.62250829 -537.53125 1372.828125 C-544.87680196 1366.50889767 -551.62946757 1359.53117139 -557.9140625 1352.1640625 C-559.9106289 1349.91680615 -562.01637946 1347.81417573 -564.15625 1345.703125 C-567.54893399 1342.35055721 -570.74725684 1338.90836818 -573.8515625 1335.2890625 C-575.87276276 1332.95286999 -577.95003839 1330.67347649 -580.03125 1328.390625 C-583.85661325 1324.14736492 -587.5071909 1319.79453003 -591.09765625 1315.3515625 C-592.97887409 1313.02501046 -594.88754752 1310.72345691 -596.80859375 1308.4296875 C-605.82336652 1297.64033285 -614.32599824 1286.52727378 -622.65625 1275.203125 C-623.48141113 1274.0881665 -623.48141113 1274.0881665 -624.32324219 1272.95068359 C-643.13224817 1247.5042138 -660.11976587 1220.76049784 -675.65625 1193.203125 C-676.10758301 1192.40487305 -676.55891602 1191.60662109 -677.02392578 1190.78417969 C-715.19644178 1122.93686875 -742.7408387 1049.81601465 -777.859375 822.546875 C-777.8663938 820.88476534 -777.87348065 819.22265597 -777.88063049 817.56054688 C-777.9000484 812.27473569 -777.90506457 806.98896825 -777.90625 801.703125 C-777.90669186 800.80353058 -777.90713371 799.90393616 -777.90758896 798.9770813 C-777.91418792 773.37880678 -777.85884274 747.89554104 -774.91271973 722.43365479 C-774.63935171 720.05615979 -774.37898082 717.67745588 -774.12011719 715.29833984 C-765.00001852 632.2584908 -743.79828459 551.26970719 -637.65625 346.203125 C-637.12580078 345.42678711 -636.59535156 344.65044922 -636.04882812 343.85058594 C-624.20026994 326.60161209 -611.37092467 310.05324054 -598.06103516 293.91210938 C-596.75498599 292.32324177 -595.46096919 290.72450447 -594.16796875 289.125 C-589.84981693 283.78510932 -585.39609723 278.61368381 -580.7734375 273.53515625 C-578.87573831 271.44488611 -577.00891585 269.33326385 -575.15625 267.203125 C-569.1376768 260.30887025 -563.06279872 253.5385906 -556.5390625 247.1171875 C-554.74068401 245.2889604 -553.06877778 243.40478805 -551.40625 241.453125 C-544.75286673 233.73398239 -537.40678706 226.57598847 -529.6484375 219.9765625 C-527.21687019 217.81199082 -524.94413919 215.51883047 -522.65625 213.203125 C-518.47794878 208.98683922 -514.17804027 205.04396885 -509.65625 201.203125 C-508.60496394 200.30006651 -507.55422965 199.39636546 -506.50390625 198.4921875 C-503.49316458 195.90205169 -500.47579589 193.31978604 -497.45556641 190.74072266 C-496.2954274 189.74933114 -495.13617905 188.75689596 -493.97802734 187.76318359 C-485.71431475 180.67325142 -477.27632489 173.85456661 -468.65625 167.203125 C-467.8612207 166.58743652 -467.06619141 165.97174805 -466.24707031 165.33740234 C-455.63027196 157.12694449 -444.95171331 149.08797948 -433.79052734 141.63085938 C-431.43380028 140.05431627 -429.08614327 138.4647124 -426.73828125 136.875 C-408.49602029 124.56822455 -389.82508021 113.01025919 -370.65625 102.203125 C-369.85799805 101.75179199 -369.05974609 101.30045898 -368.23730469 100.83544922 C-342.83488127 86.54343969 -316.60538723 73.32033963 -289.65625 62.203125 C-288.65135529 61.78833893 -288.65135529 61.78833893 -287.62615967 61.36517334 C-209.17619246 29.0546615 -127.4481177 9.46510714 -42.96484375 1.96484375 C-42.25896118 1.90158905 -41.55307861 1.83833435 -40.82580566 1.77316284 C-27.20324301 0.60298788 -13.66653543 0.03578452 0 0 Z M-310.65625 301.203125 C-311.72359375 301.93668213 -311.72359375 301.93668213 -312.8125 302.68505859 C-346.83241046 326.08065042 -377.94287317 352.44300963 -407.15625 381.578125 C-408.00638168 382.42423843 -408.00638168 382.42423843 -408.87368774 383.28744507 C-415.02121951 389.41292071 -421.02843312 395.59024394 -426.65625 402.203125 C-428.15248392 403.85238284 -429.65190812 405.49875933 -431.15625 407.140625 C-432.27773438 408.40519531 -432.27773438 408.40519531 -433.421875 409.6953125 C-434.88067766 411.33263996 -436.36951664 412.94382497 -437.890625 414.5234375 C-438.88835937 415.63332031 -438.88835937 415.63332031 -439.90625 416.765625 C-440.50953125 417.40628906 -441.1128125 418.04695312 -441.734375 418.70703125 C-442.83020359 421.67412645 -442.48639679 422.33542702 -441.45796204 425.23912048 C-441.17375711 426.04333876 -440.88955219 426.84755703 -440.596735 427.67614555 C-439.04299697 431.85086823 -437.41618277 435.99196315 -435.75073242 440.12329102 C-435.3704143 441.07274282 -434.99009617 442.02219463 -434.59825325 443.00041771 C-433.34276116 446.1328061 -432.08352008 449.26367254 -430.82421875 452.39453125 C-429.92965599 454.62406653 -429.03530709 456.85368764 -428.14115906 459.08338928 C-425.78732759 464.95083812 -423.43011797 470.81692317 -421.07170868 476.68253326 C-419.69303346 480.11163554 -418.31494495 483.54097294 -416.93707275 486.97039795 C-409.70114588 504.97945341 -402.45877614 522.98591894 -395.21166992 540.99047852 C-390.28752484 553.22488216 -385.3685581 565.46132707 -380.46412849 577.70364952 C-378.35961103 582.95672213 -376.25240298 588.20867298 -374.13812256 593.45782471 C-372.14482339 598.40721649 -370.16000256 603.35992648 -368.18141747 608.31521797 C-367.45807274 610.12280658 -366.73183857 611.92924232 -366.00234413 613.73435783 C-354.82284108 641.41356292 -354.82284108 641.41356292 -355.15625 655.203125 C-355.16906006 656.04633301 -355.18187012 656.88954102 -355.19506836 657.75830078 C-355.76322164 675.55818905 -363.11623803 692.52487668 -375.65625 705.203125 C-384.23334129 712.72597593 -394.26356355 718.51819741 -403.93164062 724.51269531 C-407.82248734 726.92669376 -411.70392229 729.35567081 -415.58618164 731.78344727 C-417.63704827 733.06583011 -419.68831963 734.34756592 -421.73999023 735.62866211 C-430.29921897 740.97364549 -438.83504977 746.35489268 -447.36181641 751.75146484 C-452.0869883 754.74102348 -456.8155738 757.72518116 -461.54345703 760.71044922 C-465.44019514 763.17116865 -469.33622188 765.63299583 -473.23046875 768.09765625 C-483.04696818 774.30809466 -492.88822412 780.47779471 -502.74169922 786.62939453 C-512.06760126 792.4541658 -521.36570717 798.32217545 -530.65625 804.203125 C-533.71826525 806.14139249 -536.78081912 808.07880478 -539.84375 810.015625 C-540.60341064 810.49660645 -541.36307129 810.97758789 -542.14575195 811.47314453 C-546.77719084 814.40082946 -551.42367901 817.30280694 -556.08203125 820.1875 C-557.17298096 820.86449951 -558.26393066 821.54149902 -559.38793945 822.23901367 C-561.53146212 823.56816745 -563.67706657 824.89397106 -565.82495117 826.21606445 C-566.80052979 826.821521 -567.7761084 827.42697754 -568.78125 828.05078125 C-569.65007812 828.58711182 -570.51890625 829.12344238 -571.4140625 829.67602539 C-574.36701189 831.60630178 -574.36701189 831.60630178 -576.65625 834.203125 C-576.89180377 837.24182161 -576.89180377 837.24182161 -576.50390625 840.74609375 C-576.42260468 841.74082954 -576.42260468 841.74082954 -576.33966064 842.75566101 C-576.15152212 844.96944238 -575.93686245 847.17960682 -575.71875 849.390625 C-575.61148087 850.54416473 -575.61148087 850.54416473 -575.50204468 851.7210083 C-568.16027075 930.39454946 -546.00550237 1004.6593639 -510.65625 1075.203125 C-510.17945801 1076.15928711 -509.70266602 1077.11544922 -509.21142578 1078.10058594 C-502.12687038 1092.22611624 -494.03183061 1105.80830959 -485.65625 1119.203125 C-485.09749113 1120.24318129 -484.53873226 1121.28323757 -483.96304131 1122.35481071 C-481.93708596 1125.49017435 -481.93708596 1125.49017435 -478.65092659 1125.74543953 C-477.47094534 1125.64818014 -476.29096409 1125.55092075 -475.07522583 1125.45071411 C-474.41863692 1125.40560282 -473.76204801 1125.36049154 -473.08556247 1125.31401324 C-470.89119437 1125.15641051 -468.70302051 1124.95509481 -466.51220703 1124.75439453 C-464.94321603 1124.63401718 -463.37398147 1124.51677855 -461.80453682 1124.40246773 C-458.46459023 1124.15517536 -455.1265453 1123.89121652 -451.78885651 1123.61515045 C-446.78435557 1123.20586435 -441.77712302 1122.86044406 -436.76654053 1122.53509521 C-435.53061081 1122.45459775 -435.53061081 1122.45459775 -434.26971281 1122.37247407 C-432.58459104 1122.26273782 -430.89946546 1122.15306013 -429.21433616 1122.04343963 C-424.82246817 1121.75435264 -420.43162759 1121.45051601 -416.04074097 1121.14694214 C-408.444402 1120.62249547 -400.84785062 1120.1013484 -393.25100708 1119.58425903 C-391.24927315 1119.4479602 -389.24753937 1119.31165914 -387.24580574 1119.17535591 C-386.24578978 1119.10726605 -385.24577382 1119.03917618 -384.21545434 1118.96902299 C-370.84215683 1118.05814111 -357.46910727 1117.14378476 -344.09667969 1116.22021484 C-334.97884629 1115.59052569 -325.8606137 1114.96698783 -316.74189961 1114.35017979 C-311.95420403 1114.02608314 -307.16675304 1113.69906518 -302.37978745 1113.36434555 C-268.33085981 1110.98670701 -268.33085981 1110.98670701 -253.15283203 1110.94189453 C-251.70005261 1110.93588887 -251.70005261 1110.93588887 -250.21792412 1110.92976189 C-232.70585635 1111.0909739 -217.28066674 1118.20518308 -204.65625 1130.203125 C-194.34433467 1140.89451881 -189.1280139 1152.62453631 -185.43359375 1166.76977539 C-185.13350906 1167.90211389 -184.83342438 1169.03445238 -184.52424622 1170.20110416 C-181.03668706 1183.42897824 -177.69933827 1196.69542757 -174.37294769 1209.96454883 C-173.45948383 1213.60611277 -172.54330927 1217.24699479 -171.62744141 1220.88795471 C-169.88724291 1227.80749478 -168.14909456 1234.72754785 -166.41185379 1241.64783102 C-164.49035354 1249.30198032 -162.56742852 1256.95577112 -160.6439724 1264.60942912 C-160.07407476 1266.87752618 -159.50445833 1269.14569371 -158.93489075 1271.41387367 C-157.05358801 1278.90404872 -155.16713051 1286.39286886 -153.27075195 1293.87924194 C-152.52375661 1296.83066525 -151.77732086 1299.78222959 -151.03125 1302.73388672 C-150.84807409 1303.4582784 -150.66489819 1304.18267007 -150.47617149 1304.92901301 C-148.08187705 1314.40813893 -145.75557905 1323.90104619 -143.49533081 1333.4130125 C-142.3337105 1338.300144 -141.15046816 1343.18195774 -139.96151924 1348.06250554 C-139.1686498 1351.32446781 -138.39302501 1354.58845595 -137.6395874 1357.85989189 C-136.81871586 1361.42127696 -135.95725833 1364.97045411 -135.0859375 1368.51977539 C-134.74151611 1370.09124801 -134.74151611 1370.09124801 -134.39013672 1371.69446754 C-133.22362682 1376.81884573 -133.22362682 1376.81884573 -129.77203655 1380.49255466 C-127.72570195 1381.28219648 -125.80796937 1381.79537764 -123.65625 1382.203125 C-122.08870972 1382.64265503 -122.08870972 1382.64265503 -120.48950195 1383.09106445 C-116.9852649 1383.9123225 -113.48027396 1384.72596709 -109.96875 1385.515625 C-109.30474182 1385.66519653 -108.64073364 1385.81476807 -107.956604 1385.96887207 C-81.17500226 1391.95656743 -54.00073929 1395.94576255 -26.65625 1398.203125 C-25.57577393 1398.29303711 -24.49529785 1398.38294922 -23.38208008 1398.47558594 C32.81564445 1402.83055544 89.36001859 1398.96495956 144.53125 1387.640625 C145.56936325 1387.42799011 145.56936325 1387.42799011 146.62844849 1387.21105957 C149.92035598 1386.53093743 153.20031506 1385.82076722 156.47802734 1385.07373047 C159.1727461 1384.46684863 161.84453187 1383.91837569 164.55712891 1383.41455078 C165.91991531 1383.12814107 167.28239492 1382.84026688 168.64453125 1382.55078125 C170.46658081 1382.19705444 170.46658081 1382.19705444 172.32543945 1381.83618164 C175.68692797 1380.01744859 175.79325964 1379.78750359 176.83389282 1376.36903381 C177.08218873 1375.55575465 177.33048464 1374.74247549 177.58630466 1373.90455151 C178.98157366 1368.92832883 180.26951978 1363.93000896 181.51977539 1358.91552734 C181.82324733 1357.71025894 182.12671926 1356.50499054 182.43938732 1355.26319885 C183.26948236 1351.96362397 184.09651171 1348.66330926 184.92220592 1345.36263227 C185.80235051 1341.84753199 186.68651244 1338.33344236 187.57025146 1334.81924438 C189.0742779 1328.83639803 190.57596062 1322.85296767 192.07608032 1316.86914062 C194.40470725 1307.58094151 196.73934259 1298.29425807 199.07495117 1289.0078125 C199.84942111 1285.92817183 200.62384225 1282.8485189 201.39823914 1279.76885986 C201.58889987 1279.01063407 201.77956061 1278.25240828 201.97599894 1277.47120595 C204.06009902 1269.18261034 206.14254366 1260.89359903 208.22460938 1252.60449219 C208.40451931 1251.88824724 208.58442925 1251.17200229 208.76979101 1250.43405294 C210.80226291 1242.34235081 212.83398133 1234.25045986 214.86490536 1226.15836906 C217.0727742 1217.36134912 219.28291119 1208.56491479 221.50140285 1199.77056694 C222.40893656 1196.17244475 223.31445955 1192.57384903 224.21438599 1188.97381592 C237.59301869 1135.46717017 237.59301869 1135.46717017 262.34375 1120.203125 C290.72255973 1104.59831816 325.87417142 1111.88645054 356.815727 1114.03013229 C362.59311667 1114.42856158 368.37115094 1114.8174167 374.14912415 1115.20727539 C385.05800563 1115.94469661 395.96633282 1116.68999391 406.87446004 1117.43848133 C422.91848163 1118.53905027 438.96327148 1119.62831857 455.00812244 1120.71672058 C456.18610218 1120.79663396 457.36408192 1120.87654734 458.57775801 1120.95888233 C460.92567329 1121.11816295 463.27358992 1121.27742358 465.62150794 1121.43666363 C472.48623409 1121.90252128 479.35077929 1122.37094241 486.21517599 1122.84162903 C490.46983829 1123.13317551 494.72458661 1123.42345299 498.97935104 1123.71350479 C500.95269542 1123.84835319 502.92599936 1123.98379473 504.89925957 1124.11986923 C507.58924714 1124.30531899 510.27936731 1124.48871507 512.9695282 1124.67163086 C513.75180131 1124.72610414 514.53407442 1124.78057741 515.34005278 1124.83670139 C520.83931848 1125.25627706 520.83931848 1125.25627706 526.34375 1125.203125 C527.93584787 1123.71436104 527.93584787 1123.71436104 529.03515625 1121.56640625 C529.73016235 1120.37591675 529.73016235 1120.37591675 530.43920898 1119.16137695 C530.92333252 1118.28827881 531.40745605 1117.41518066 531.90625 1116.515625 C532.42582275 1115.61223389 532.94539551 1114.70884277 533.48071289 1113.77807617 C534.57349264 1111.87348897 535.65821544 1109.96425917 536.73535156 1108.05078125 C538.24480417 1105.37830778 539.78331461 1102.7256908 541.3359375 1100.078125 C560.86431845 1066.64532948 576.75546146 1031.79429266 589.34375 995.203125 C589.73224121 994.089375 590.12073242 992.975625 590.52099609 991.828125 C605.87682542 947.47991462 615.18873852 900.75027046 619.59375 854.078125 C619.67399414 853.23233887 619.75423828 852.38655273 619.83691406 851.51513672 C620.04618471 849.07835034 620.20819155 846.64509315 620.34375 844.203125 C620.40353027 843.2347168 620.46331055 842.26630859 620.52490234 841.26855469 C620.5605127 840.29047852 620.59612305 839.31240234 620.6328125 838.3046875 C620.67100098 837.41346191 620.70918945 836.52223633 620.74853516 835.60400391 C620.21416415 832.43451992 619.01814057 831.57146918 616.46875 829.703125 C614.44564341 828.50456185 612.40079903 827.34245075 610.34375 826.203125 C608.327339 824.98711743 606.32481019 823.74981203 604.32128906 822.51269531 C602.01022627 821.0891779 599.6891658 819.68297495 597.3671875 818.27734375 C592.1047316 815.07451492 586.90894016 811.77141287 581.71875 808.453125 C573.89138706 803.45114155 566.03796017 798.49405322 558.15625 793.578125 C547.10123523 786.68212483 536.08047228 779.73350399 525.07128906 772.76464844 C515.51310518 766.71563091 505.93886204 760.69342679 496.34375 754.703125 C486.75587541 748.71734161 477.18900477 742.69947922 467.63818359 736.65478516 C464.50262936 734.67095823 461.36551076 732.68961597 458.2277832 730.70922852 C456.64594614 729.70990923 455.06504375 728.70910879 453.48510742 727.70678711 C449.44763264 725.14781245 445.39593146 722.61789927 441.3125 720.1328125 C421.07788406 707.74966966 407.15031355 693.81387327 400.95019531 670.14526367 C399.94750014 665.28073888 399.83066376 660.53126603 399.84375 655.578125 C399.81539062 654.62550781 399.78703125 653.67289063 399.7578125 652.69140625 C399.70763385 633.64860812 409.49059362 615.35828722 416.55825424 598.06000519 C418.11672763 594.2397503 419.66520505 590.41545018 421.21411133 586.59130859 C423.26481248 581.52935324 425.31597253 576.46758891 427.37037659 571.40713501 C435.86445657 550.48078052 444.29004289 529.52686577 452.71237946 508.57155418 C455.55973816 501.48718118 458.40949433 494.40377984 461.26133728 487.32121086 C474.55548544 454.36139999 474.55548544 454.36139999 487.34375 421.203125 C479.97305702 412.63782165 472.54713462 404.15206411 464.86303711 395.8659668 C463.70485624 394.59835151 462.55953235 393.31897658 461.42016602 392.03442383 C455.90189824 385.82212752 450.16338721 379.86731644 444.27758789 374.0065918 C442.77568075 372.51007575 441.27923938 371.008242 439.78320312 369.50585938 C435.00906032 364.72842144 430.18548787 360.0614388 425.0534668 355.66772461 C422.65689959 353.61474636 420.34901408 351.4692632 418.03125 349.328125 C412.62881684 344.40805195 407.05460243 339.75957487 401.34375 335.203125 C400.83537598 334.79513672 400.32700195 334.38714844 399.80322266 333.96679688 C370.28512625 310.30897718 338.80753817 289.44674833 305.56054688 271.40771484 C304.09838729 270.61318892 302.63868196 269.81412743 301.18164062 269.01025391 C286.32055303 260.81923516 270.88789652 253.97155491 255.34375 247.203125 C254.45349121 246.80947754 253.56323242 246.41583008 252.64599609 246.01025391 C250.53136103 245.07777839 248.40973379 244.16592649 246.28125 243.265625 C244.65509766 242.57146484 244.65509766 242.57146484 242.99609375 241.86328125 C240.43116453 240.9842608 240.43116453 240.9842608 238.28125 241.828125 C235.90526349 243.51430898 233.64725997 245.27704828 231.40625 247.140625 C230.43816406 247.94371094 229.47007812 248.74679687 228.47265625 249.57421875 C224.6966477 252.7397706 220.93703545 255.92473955 217.18188477 259.11499023 C212.88406044 262.76187947 208.52779461 266.33239101 204.15625 269.890625 C201.02575334 272.46458892 197.93202539 275.07881586 194.84375 277.703125 C189.99415619 281.82414134 185.09214194 285.87303854 180.15625 289.890625 C177.02575334 292.46458892 173.93202539 295.07881586 170.84375 297.703125 C165.99415619 301.82414134 161.09214194 305.87303854 156.15625 309.890625 C153.02575334 312.46458892 149.93202539 315.07881586 146.84375 317.703125 C141.99415619 321.82414134 137.09214194 325.87303854 132.15625 329.890625 C129.02575334 332.46458892 125.93202539 335.07881586 122.84375 337.703125 C117.99415619 341.82414134 113.09214194 345.87303854 108.15625 349.890625 C105.02575334 352.46458892 101.93202539 355.07881586 98.84375 357.703125 C93.99615504 361.82244278 89.09822568 365.87197882 84.16015625 369.8828125 C81.56388277 372.02176735 79.00738913 374.19882229 76.45703125 376.3918457 C60.62498991 389.96117834 44.09114142 399.83924171 22.65625 399.703125 C21.08967651 399.69563232 21.08967651 399.69563232 19.49145508 399.68798828 C1.39575958 399.28397321 -13.02344303 391.81403255 -26.65625 380.203125 C-27.69888154 379.32251726 -28.74186726 378.44232874 -29.78515625 377.5625 C-31.44850206 376.1577374 -33.11044386 374.75142963 -34.76904297 373.34106445 C-38.20096287 370.42307682 -41.66187366 367.5464385 -45.15625 364.703125 C-49.7607858 360.95524702 -54.29644191 357.13329056 -58.8203125 353.2890625 C-62.2368454 350.39067677 -65.68129838 347.531574 -69.15625 344.703125 C-73.7607858 340.95524702 -78.29644191 337.13329056 -82.8203125 333.2890625 C-86.2368454 330.39067677 -89.68129838 327.531574 -93.15625 324.703125 C-97.7607858 320.95524702 -102.29644191 317.13329056 -106.8203125 313.2890625 C-110.2368454 310.39067677 -113.68129838 307.531574 -117.15625 304.703125 C-121.7607858 300.95524702 -126.29644191 297.13329056 -130.8203125 293.2890625 C-134.2368454 290.39067677 -137.68129838 287.531574 -141.15625 284.703125 C-145.7607858 280.95524702 -150.29644191 277.13329056 -154.8203125 273.2890625 C-159.11638044 269.64453093 -163.46993341 266.0752516 -167.83984375 262.51953125 C-170.99411232 259.92524378 -174.1079062 257.28663529 -177.21875 254.640625 C-181.2347344 251.23397057 -185.26248891 247.84414629 -189.34375 244.515625 C-190.13136719 243.87238281 -190.91898438 243.22914063 -191.73046875 242.56640625 C-201.07427602 235.95182463 -297.13704582 291.8241771 -310.65625 301.203125 Z " fill="#0C6CFE" transform="translate(977.65625,199.796875)"/>
<path d="M0 0 C0.74652832 0.54462891 1.49305664 1.08925781 2.26220703 1.65039062 C6.25441326 4.57172071 10.23377256 7.50999705 14.20703125 10.45703125 C18.80051185 13.86053914 23.42456236 17.21990606 28.0625 20.5625 C29.17020752 21.36083252 29.17020752 21.36083252 30.30029297 22.17529297 C31.78872706 23.24747283 33.27733353 24.31941343 34.76611328 25.39111328 C39.26523169 28.63146195 43.75824119 31.88027702 48.25244141 35.12744141 C51.987945 37.82598022 55.7248148 40.52257953 59.46484375 43.21484375 C67.97920681 49.34756679 76.45216202 55.53232789 84.89208984 61.76708984 C93.98889017 68.4802864 103.16486728 75.08275109 112.34228516 81.68505859 C162.41403541 117.71645435 162.41403541 117.71645435 167.70703125 149.76611328 C168.20632436 153.57322323 168.39496066 157.34987327 168.4375 161.1875 C168.44773193 161.86264648 168.45796387 162.53779297 168.46850586 163.23339844 C168.27405386 174.70470634 164.58797464 185.98037422 161.03515625 196.78515625 C160.64998337 197.97525803 160.26481049 199.1653598 159.8679657 200.39152527 C158.82376824 203.61282849 157.77341868 206.83199238 156.72007751 210.05030823 C155.60092737 213.47491546 154.49005651 216.90220861 153.37792969 220.32910156 C146.79879259 240.58520785 140.15670728 260.82111751 133.49923706 281.05160522 C129.07744961 294.48857388 124.68256103 307.93248014 120.3984375 321.4140625 C120.0331897 322.56241577 119.66794189 323.71076904 119.29162598 324.8939209 C117.58537793 330.26292243 115.88610031 335.63397845 114.19824219 341.00878906 C105.86805864 367.40264068 96.12576473 391.13269811 70.25 404.75 C57.75190627 410.70665403 45.37550853 413.16327853 31.64692688 413.13371277 C30.46189529 413.1371111 30.46189529 413.1371111 29.25292367 413.14057809 C26.63254905 413.14685667 24.01222697 413.14609271 21.3918457 413.14526367 C19.50192702 413.14825903 17.61200895 413.15166243 15.72209167 413.15544128 C10.606142 413.16424787 5.49020908 413.16661801 0.37425256 413.16725707 C-2.82785511 413.16796956 -6.02995858 413.17010766 -9.2320652 413.17275429 C-20.41993096 413.18199721 -31.60778484 413.18609056 -42.7956543 413.18530273 C-53.19691497 413.18470248 -63.59812369 413.19524679 -73.99937123 413.2110464 C-82.95171688 413.22415674 -91.90404562 413.22948515 -100.85640079 413.22884732 C-106.19323831 413.22859333 -111.53002964 413.23138972 -116.86685753 413.24202538 C-121.89101813 413.25176514 -126.91508894 413.25174555 -131.93925285 413.24450874 C-133.77330915 413.24347012 -135.60737121 413.24578238 -137.44141769 413.2518692 C-163.32717387 413.33214945 -185.00171684 408.62472953 -204.140625 390.01171875 C-218.19701925 375.64954618 -223.39123451 356.38042935 -229.375 337.75 C-230.0814403 335.56778745 -230.7884017 333.38574353 -231.49584961 331.20385742 C-234.95478078 320.52071854 -238.37912926 309.82652815 -241.79296875 299.12890625 C-242.10194092 298.16073471 -242.41091309 297.19256317 -242.72924805 296.1950531 C-243.99157261 292.23863175 -245.2538331 288.28219269 -246.51348877 284.32492065 C-250.92762606 270.4623419 -255.42378739 256.62874161 -259.98046875 242.8125 C-260.23913286 242.02778006 -260.49779697 241.24306011 -260.76429939 240.43456078 C-263.34928955 232.59247437 -265.93737629 224.75144524 -268.53825855 216.91461372 C-269.51167163 213.97894588 -270.48164163 211.04214738 -271.45093727 208.1051178 C-271.9005459 206.74552031 -272.35167387 205.38642404 -272.80454063 204.02790833 C-281.54910544 177.79108067 -286.95758411 152.70809957 -274.4375 126.75 C-268.38017552 114.97266992 -259.71550253 105.72250314 -249 98 C-247.66778151 97.02760022 -246.33576747 96.05492031 -245.00390625 95.08203125 C-241.14154502 92.27210898 -237.26231076 89.48630504 -233.37890625 86.70556641 C-229.57841364 83.98078794 -225.78962941 81.23985565 -222 78.5 C-220.50006014 77.4165834 -219.00006003 76.3332502 -217.5 75.25 C-216.7575 74.71375 -216.015 74.1775 -215.25 73.625 C-190.5 55.75 -190.5 55.75 -188.25024414 54.12524414 C-186.7493445 53.04121584 -185.24853078 51.95706858 -183.74780273 50.87280273 C-180.01226033 48.17412345 -176.27527746 45.47748688 -172.53515625 42.78515625 C-164.74084153 37.17096822 -156.975464 31.52114617 -149.25 25.8125 C-143.29389798 21.41172908 -137.31625723 17.04741647 -131.27856445 12.75927734 C-127.26210492 9.90625827 -123.26655235 7.02565211 -119.27832031 4.13330078 C-116.22360478 1.92032059 -113.16207518 -0.28311388 -110.09960938 -2.48535156 C-108.20120056 -3.85485485 -106.31112297 -5.2350986 -104.421875 -6.6171875 C-69.04734044 -31.99457099 -32.91636461 -24.01862448 0 0 Z " fill="#0C6CFE" transform="translate(1057,790)"/>
</svg>
